<svg viewBox="0 0 24 24" fill="none" xmlns="http://www.w3.org/2000/svg">
<circle cx="12" cy="12" r="11.5" stroke="#CCA33D"/>
<path d="M6.76367 15.25L8.60938 15.0938C8.74609 15.9922 9.06185 16.6693 9.55664 17.125C10.0579 17.5742 10.6602 17.7988 11.3633 17.7988C12.2096 17.7988 12.9258 17.4798 13.5117 16.8418C14.0977 16.2038 14.3906 15.3574 14.3906 14.3027C14.3906 13.3001 14.1074 12.5091 13.541 11.9297C12.9811 11.3503 12.2454 11.0605 11.334 11.0605C10.7676 11.0605 10.2565 11.1908 9.80078 11.4512C9.34505 11.7051 8.98698 12.0371 8.72656 12.4473L7.07617 12.2324L8.46289 4.87891H15.582V6.55859H9.86914L9.09766 10.4062C9.95703 9.80729 10.8587 9.50781 11.8027 9.50781C13.0527 9.50781 14.1074 9.94076 14.9668 10.8066C15.8262 11.6725 16.2559 12.7858 16.2559 14.1465C16.2559 15.4421 15.8783 16.5618 15.123 17.5059C14.2051 18.6647 12.9518 19.2441 11.3633 19.2441C10.0612 19.2441 8.99674 18.8796 8.16992 18.1504C7.34961 17.4212 6.88086 16.4544 6.76367 15.25Z" fill="#CCA33D"/>
</svg>
