<svg viewBox="0 0 24 24" fill="none" xmlns="http://www.w3.org/2000/svg">
<circle cx="12" cy="12" r="11.5" stroke="#CCA33D"/>
<path d="M15.8848 8.18945L14.1367 8.32617C13.9805 7.63607 13.7591 7.13477 13.4727 6.82227C12.9974 6.32096 12.4115 6.07031 11.7148 6.07031C11.1549 6.07031 10.6634 6.22656 10.2402 6.53906C9.68685 6.94271 9.25065 7.5319 8.93164 8.30664C8.61263 9.08138 8.44661 10.1849 8.43359 11.6172C8.85677 10.9727 9.37435 10.4941 9.98633 10.1816C10.5983 9.86914 11.2396 9.71289 11.9102 9.71289C13.082 9.71289 14.0781 10.1458 14.8984 11.0117C15.7253 11.8711 16.1387 12.9844 16.1387 14.3516C16.1387 15.25 15.9434 16.0866 15.5527 16.8613C15.1686 17.6296 14.638 18.2188 13.9609 18.6289C13.2839 19.0391 12.5156 19.2441 11.6562 19.2441C10.1914 19.2441 8.99674 18.707 8.07227 17.6328C7.14779 16.5521 6.68555 14.7747 6.68555 12.3008C6.68555 9.53385 7.19661 7.52214 8.21875 6.26562C9.11068 5.17188 10.3118 4.625 11.8223 4.625C12.9486 4.625 13.8698 4.94076 14.5859 5.57227C15.3086 6.20378 15.7415 7.07617 15.8848 8.18945ZM8.70703 14.3613C8.70703 14.9668 8.83398 15.5462 9.08789 16.0996C9.34831 16.653 9.70964 17.0762 10.1719 17.3691C10.6341 17.6556 11.1191 17.7988 11.627 17.7988C12.3691 17.7988 13.0072 17.4993 13.541 16.9004C14.0749 16.3014 14.3418 15.4876 14.3418 14.459C14.3418 13.4694 14.0781 12.6914 13.5508 12.125C13.0234 11.5521 12.3594 11.2656 11.5586 11.2656C10.7643 11.2656 10.0905 11.5521 9.53711 12.125C8.98372 12.6914 8.70703 13.4368 8.70703 14.3613Z" fill="#CCA33D"/>
</svg>
