<svg  viewBox="0 0 24 24" fill="none" xmlns="http://www.w3.org/2000/svg">
<circle cx="12" cy="12" r="11.5" stroke="#CCA33D"/>
<path d="M16.002 17.3105V19H6.53906C6.52604 18.5768 6.5944 18.1699 6.74414 17.7793C6.98503 17.1348 7.36914 16.5 7.89648 15.875C8.43034 15.25 9.19857 14.5273 10.2012 13.707C11.7572 12.431 12.8086 11.4219 13.3555 10.6797C13.9023 9.93099 14.1758 9.22461 14.1758 8.56055C14.1758 7.86393 13.9251 7.27799 13.4238 6.80273C12.929 6.32096 12.2812 6.08008 11.4805 6.08008C10.6341 6.08008 9.95703 6.33398 9.44922 6.8418C8.94141 7.34961 8.68424 8.05273 8.67773 8.95117L6.87109 8.76562C6.99479 7.41797 7.46029 6.39258 8.26758 5.68945C9.07487 4.97982 10.1589 4.625 11.5195 4.625C12.8932 4.625 13.9805 5.00586 14.7812 5.76758C15.582 6.5293 15.9824 7.47331 15.9824 8.59961C15.9824 9.17253 15.8652 9.73568 15.6309 10.2891C15.3965 10.8424 15.0059 11.4251 14.459 12.0371C13.9186 12.6491 13.0169 13.4889 11.7539 14.5566C10.6992 15.4421 10.0221 16.0443 9.72266 16.3633C9.42318 16.6758 9.17578 16.9915 8.98047 17.3105H16.002Z" fill="#CCA33D"/>
</svg>