<svg  viewBox="0 0 24 24" fill="none" xmlns="http://www.w3.org/2000/svg">
<circle cx="12" cy="12" r="11.5" stroke="#CCA33D"/>
<path d="M6.77344 15.2207L8.53125 14.9863C8.73307 15.9824 9.07487 16.7018 9.55664 17.1445C10.0449 17.5807 10.6374 17.7988 11.334 17.7988C12.1608 17.7988 12.8574 17.5124 13.4238 16.9395C13.9967 16.3665 14.2832 15.6569 14.2832 14.8105C14.2832 14.0033 14.0195 13.3392 13.4922 12.8184C12.9648 12.291 12.2943 12.0273 11.4805 12.0273C11.1484 12.0273 10.735 12.0924 10.2402 12.2227L10.4355 10.6797C10.5527 10.6927 10.6471 10.6992 10.7188 10.6992C11.4674 10.6992 12.1413 10.5039 12.7402 10.1133C13.3392 9.72266 13.6387 9.12044 13.6387 8.30664C13.6387 7.66211 13.4206 7.12826 12.9844 6.70508C12.5482 6.2819 11.985 6.07031 11.2949 6.07031C10.6113 6.07031 10.0417 6.28516 9.58594 6.71484C9.13021 7.14453 8.83724 7.78906 8.70703 8.64844L6.94922 8.33594C7.16406 7.15755 7.65234 6.24609 8.41406 5.60156C9.17578 4.95052 10.123 4.625 11.2559 4.625C12.0371 4.625 12.7565 4.79427 13.4141 5.13281C14.0716 5.46484 14.5729 5.92057 14.918 6.5C15.2695 7.07943 15.4453 7.69466 15.4453 8.3457C15.4453 8.96419 15.2793 9.52734 14.9473 10.0352C14.6152 10.543 14.1237 10.9466 13.4727 11.2461C14.319 11.4414 14.9766 11.8483 15.4453 12.4668C15.9141 13.0788 16.1484 13.847 16.1484 14.7715C16.1484 16.0215 15.6927 17.0827 14.7812 17.9551C13.8698 18.821 12.7174 19.2539 11.3242 19.2539C10.0677 19.2539 9.02279 18.8796 8.18945 18.1309C7.36263 17.3822 6.89062 16.4121 6.77344 15.2207Z" fill="#CCA33D"/>
</svg>
